<?xml version="1.0" standalone="no"?><!DOCTYPE svg PUBLIC "-//W3C//DTD SVG 1.1//EN" "http://www.w3.org/Graphics/SVG/1.1/DTD/svg11.dtd"><svg t="1551690847969" class="icon" style="" viewBox="0 0 1024 1024" version="1.1" xmlns="http://www.w3.org/2000/svg" p-id="4606" xmlns:xlink="http://www.w3.org/1999/xlink" width="32" height="32"><defs><style type="text/css"></style></defs><path d="M896 896H128V192l384-149.333333 384 149.333333z" fill="#C5CAE9" p-id="4607"></path><path d="M128 896h768v42.666667H128z" fill="#9FA8DA" p-id="4608"></path><path d="M426.666667 746.666667h170.666666v192h-170.666666z" fill="#1296db" p-id="4609" data-spm-anchor-id="a313x.7781069.0.i27" class=""></path><path d="M661.333333 576h128v106.666667h-128zM448 576h128v106.666667h-128zM234.666667 576h128v106.666667h-128zM661.333333 746.666667h128v106.666666h-128zM234.666667 746.666667h128v106.666666h-128zM661.333333 405.333333h128v106.666667h-128zM448 405.333333h128v106.666667h-128zM234.666667 405.333333h128v106.666667h-128zM661.333333 234.666667h128v106.666666h-128zM448 234.666667h128v106.666666h-128zM234.666667 234.666667h128v106.666666h-128z" fill="#7dc5eb" p-id="4610" data-spm-anchor-id="a313x.7781069.0.i28" class=""></path></svg>