<?xml version="1.0" standalone="no"?><!DOCTYPE svg PUBLIC "-//W3C//DTD SVG 1.1//EN" "http://www.w3.org/Graphics/SVG/1.1/DTD/svg11.dtd"><svg t="1551690769478" class="icon" style="" viewBox="0 0 1024 1024" version="1.1" xmlns="http://www.w3.org/2000/svg" p-id="3725" data-spm-anchor-id="a313x.7781069.0.i22" xmlns:xlink="http://www.w3.org/1999/xlink" width="32" height="32"><defs><style type="text/css"></style></defs><path d="M534.102928 715.684621c-12.791046 0-23.126212-10.335165-23.126212-23.126212l0-41.852303c-25.377436-9.516538-42.773259-34.280004-42.773259-61.704007 0-36.326571 29.572899-65.89947 65.89947-65.89947 36.326571 0 65.89947 29.572899 65.89947 65.89947 0 27.424003-17.395823 52.187469-42.773259 61.704007L557.22914 692.558409C557.22914 705.247127 546.893974 715.684621 534.102928 715.684621z" p-id="3726" data-spm-anchor-id="a313x.7781069.0.i17" class="" fill="#aad08f"></path><path d="M275.519137 907.652643c-41.238333 0-74.904367-35.507944-74.904367-79.202158L200.61477 444.002798l667.078645 0 0 384.550015c0 43.694214-33.563705 79.202158-74.904367 79.202158L275.519137 907.652643 275.519137 907.652643zM240.420506 807.780154c0 35.405616 22.205256 59.145798 55.25732 59.145798l476.850205 0c33.052064 0 55.25732-23.740182 55.25732-59.145798l0-322.232038L240.420506 485.548116 240.420506 807.780154z" p-id="3727" data-spm-anchor-id="a313x.7781069.0.i23" class="" fill="#be8fd0"></path><path d="M755.336864 449.52853 755.336864 326.734486c0-126.17088-93.52813-217.754772-222.359548-217.754772-128.831418 0-222.359548 91.583891-222.359548 217.754772l0 122.691716L268.151494 449.426202 268.151494 323.562306c0-68.662336 27.526332-133.231538 77.667233-181.735185 50.038573-48.503647 116.449685-75.211352 187.158589-75.211352s137.222344 26.707705 187.158589 75.211352c50.038573 48.503647 77.667233 113.072849 77.667233 181.735185l0 125.966224L755.336864 449.52853 755.336864 449.52853z" p-id="3728" data-spm-anchor-id="a313x.7781069.0.i18" class="" fill="#7dc5eb"></path></svg>