<?xml version="1.0" standalone="no"?><!DOCTYPE svg PUBLIC "-//W3C//DTD SVG 1.1//EN" "http://www.w3.org/Graphics/SVG/1.1/DTD/svg11.dtd"><svg t="1551666232959" class="icon" style="" viewBox="0 0 1024 1024" version="1.1" xmlns="http://www.w3.org/2000/svg" p-id="1770" xmlns:xlink="http://www.w3.org/1999/xlink" width="200" height="200"><defs><style type="text/css"></style></defs><path d="M511.717567 127.981836c34.606169 0 68.116377 6.704702 99.598392 19.928888 30.468942 12.797467 57.817824 31.142278 81.289398 54.525847 48.328705 48.146557 74.943876 112.571868 74.943876 181.406606 0 37.119409-7.90504 79.557964-23.496134 126.136815-14.530948 43.412742-35.730783 90.39273-63.010079 139.636271-58.604746 105.791441-129.349997 194.2184-169.326477 240.706177-39.981596-46.503127-110.729917-134.947482-169.32136-240.706177-27.282367-49.244564-48.484248-96.225575-63.017242-139.636271-15.59314-46.578852-23.499204-89.017406-23.499204-126.135792 0-68.834738 26.616194-133.26005 74.944899-181.406606 23.471574-23.38357 50.821479-41.72838 81.291444-54.525847C443.59812 134.686539 477.109352 127.981836 511.717567 127.981836M511.717567 64.025199c-176.35966 0-319.794443 141.665487-319.794443 319.817979 0 186.559976 159.91206 420.09073 276.493242 554.182728 0.435928 0.523933 19.150152 21.444405 42.284035 21.444405l2.029216 0c23.134907 0 41.84299-20.924565 42.289152-21.444405 116.605741-134.093021 276.489148-367.627868 276.489148-554.182728C831.506894 205.690686 688.071088 64.025199 511.717567 64.025199L511.717567 64.025199z" p-id="1771"></path><path d="M511.706311 319.863005c35.270295 0 63.964824 28.694529 63.964824 63.964824s-28.694529 63.964824-63.964824 63.964824-63.964824-28.694529-63.964824-63.964824S476.436016 319.863005 511.706311 319.863005M511.706311 255.906367c-70.64906 0-127.921461 57.272401-127.921461 127.921461s57.272401 127.921461 127.921461 127.921461 127.921461-57.272401 127.921461-127.921461S582.355371 255.906367 511.706311 255.906367L511.706311 255.906367z" p-id="1772"></path></svg>